<?xml version="1.0" encoding="UTF-8"?>
<svg version="1.1" xmlns="http://www.w3.org/2000/svg" width="512" height="512">
<path d="M0 0 C27.72694751 10.37897465 61.22826846 4.3841202 87.99755859 -5.87792969 C88.92439453 -6.34457031 89.85123047 -6.81121094 90.80615234 -7.29199219 C95.92682303 -8.2321398 99.92123466 -6.08897917 104.62255859 -4.12792969 C105.56357422 -3.75410156 106.50458984 -3.38027344 107.47412109 -2.99511719 C111.39482753 -1.42460694 115.23905686 0.19159166 118.99755859 2.12207031 C117.33073989 6.20974475 114.41067595 9.14405819 111.49755859 12.37207031 C105.02539521 19.74762152 99.839431 27.60428311 94.99755859 36.12207031 C94.36076172 37.2396875 93.72396484 38.35730469 93.06787109 39.50878906 C85.19285927 54.29631127 80.35854861 70.57625225 77.99755859 87.12207031 C77.86736328 87.98316406 77.73716797 88.84425781 77.60302734 89.73144531 C73.08030277 125.67202989 84.22843764 163.18224108 106.02490234 191.78222656 C107.97600582 194.26510872 109.97004863 196.7013463 111.99755859 199.12207031 C112.58408203 199.83234375 113.17060547 200.54261719 113.77490234 201.27441406 C117.81603169 206.0486281 122.1575196 210.16720623 126.99755859 214.12207031 C127.91021484 214.88390625 128.82287109 215.64574219 129.76318359 216.43066406 C142.7631751 226.89925018 157.28207547 234.56821507 172.99755859 240.12207031 C174.06103516 240.49976563 175.12451172 240.87746094 176.22021484 241.26660156 C193.59197189 247.01413456 210.83314817 247.71779717 228.99755859 248.12207031 C228.99755859 252.08207031 228.99755859 256.04207031 228.99755859 260.12207031 C100.95755859 260.12207031 -27.08244141 260.12207031 -159.00244141 260.12207031 C-159.00244141 148.37661577 -159.00244141 148.37661577 -153.31494141 127.55957031 C-153.0600293 126.61178711 -152.80511719 125.66400391 -152.54248047 124.6875 C-139.37977289 77.52506268 -107.23988489 34.95827717 -64.75170898 10.36791992 C-61.53116522 8.5623861 -58.2726985 6.83538766 -55.00244141 5.12207031 C-53.84357422 4.496875 -52.68470703 3.87167969 -51.49072266 3.22753906 C-48.03731791 1.42011286 -44.53192054 -0.22493127 -41.00244141 -1.87792969 C-39.76781776 -2.57149768 -38.53344943 -3.26552032 -37.29931641 -3.95996094 C-23.99788911 -10.73189858 -13.11743911 -5.04707632 0 0 Z " fill="#000000" transform="translate(165.00244140625,249.8779296875)"/>
<path d="M0 0 C1.2065625 0.3403125 2.413125 0.680625 3.65625 1.03125 C22.47367059 6.78533729 37.71165838 16.52539977 52 30 C52.67675781 30.61230469 53.35351562 31.22460938 54.05078125 31.85546875 C73.8084539 50.42530537 85.2567715 78.75917267 86.3203125 105.53515625 C87.13192174 139.82976363 77.13890094 169.94322177 53.37646484 195.02416992 C38.46899138 210.26953419 20.46989714 220.22643927 0 226 C-1.0621875 226.3196875 -2.124375 226.639375 -3.21875 226.96875 C-22.43791887 231.81844682 -45.0968863 230.83753029 -64 225 C-64.69722168 224.78569336 -65.39444336 224.57138672 -66.11279297 224.35058594 C-95.26339215 215.04677101 -119.94909844 193.91226782 -134.125 166.85253906 C-142.65607651 149.52378989 -146.40111301 132.13334704 -146.375 112.875 C-146.37445618 112.19468719 -146.37391235 111.51437439 -146.37335205 110.81344604 C-146.33278769 99.7476507 -145.43601537 89.53974675 -142 79 C-141.68651611 77.99573975 -141.68651611 77.99573975 -141.36669922 76.97119141 C-132.20353501 48.21876078 -111.78484084 23.92770634 -85.15551758 9.78930664 C-77.03280916 5.63175347 -68.79292201 2.48005493 -60 0 C-58.9378125 -0.3196875 -57.875625 -0.639375 -56.78125 -0.96875 C-39.42837727 -5.34751228 -17.12600271 -5.154428 0 0 Z " fill="#000000" transform="translate(230,5)"/>
<path d="M0 0 C23.47845441 24.10999511 34.32773535 55.53464065 34.24072266 88.79638672 C33.74306166 122.22185572 19.49235953 151.87508769 -4.125 175.1875 C-30.3585877 199.76119082 -63.35531646 208.52495781 -98.70947266 207.3828125 C-129.79032211 205.60549445 -158.93965832 189.55108202 -179.68701172 166.828125 C-188.35626407 156.93722927 -194.79694075 146.17406069 -200.125 134.1875 C-200.60710937 133.12144531 -201.08921875 132.05539062 -201.5859375 130.95703125 C-206.91562069 118.21424325 -209.64830744 103.97013269 -210.125 90.1875 C-210.16496094 89.42308594 -210.20492188 88.65867187 -210.24609375 87.87109375 C-210.88377559 65.70227198 -204.91675447 44.39943387 -194.125 25.1875 C-193.3515625 23.77404297 -193.3515625 23.77404297 -192.5625 22.33203125 C-183.88184841 7.11730224 -170.24105127 -7.82162146 -155.125 -16.8125 C-154.5573291 -17.15974121 -153.9896582 -17.50698242 -153.40478516 -17.86474609 C-103.23427186 -48.38806537 -42.03872161 -40.42680743 0 0 Z M-98.125 14.1875 C-99.65802234 17.15463709 -100.60152238 20.23161171 -101.5546875 23.42578125 C-101.8347464 24.30654831 -102.1148053 25.18731537 -102.40335083 26.09477234 C-103.2877645 28.89100042 -104.14415347 31.69491247 -105 34.5 C-105.59712456 36.40487268 -106.1960641 38.30917743 -106.796875 40.21289062 C-108.26067439 44.86478232 -109.6994145 49.52376264 -111.125 54.1875 C-112.43170654 54.20208252 -113.73841309 54.21666504 -115.0847168 54.23168945 C-119.93981075 54.28972815 -124.79444363 54.36696116 -129.64916992 54.44995117 C-131.74902861 54.48317422 -133.84897603 54.5112143 -135.94897461 54.53393555 C-138.97027344 54.56752936 -141.99076101 54.61984834 -145.01171875 54.67578125 C-146.41667854 54.68536613 -146.41667854 54.68536613 -147.85002136 54.69514465 C-152.72103808 54.80464357 -156.21208151 54.95504723 -160.125 58.1875 C-162.45617811 61.60656123 -163.125 63.59793888 -163.125 67.75 C-161.35033741 73.85040266 -156.09240927 77.13291916 -151.1875 80.875 C-150.63263916 81.2992627 -150.07777832 81.72352539 -149.50610352 82.16064453 C-144.68645719 85.82064128 -139.76838396 89.3397715 -134.79516602 92.7878418 C-131.59482262 95.03046248 -128.84692328 97.39335869 -126.125 100.1875 C-126.48851562 101.26644531 -126.85203125 102.34539062 -127.2265625 103.45703125 C-128.58047854 107.48608926 -129.91850479 111.52027895 -131.25195312 115.55615234 C-131.82970522 117.29748681 -132.41167623 119.03742768 -132.99804688 120.77587891 C-133.84335142 123.28447829 -134.67302551 125.79780717 -135.5 128.3125 C-135.76248535 129.08053955 -136.0249707 129.8485791 -136.29541016 130.63989258 C-138.01186657 135.9279828 -139.71154049 141.99625252 -137.1015625 147.24609375 C-133.75350975 150.66188167 -132.32419374 152.04687793 -127.52734375 152.609375 C-122.07507806 152.52589063 -118.82873771 149.71133498 -114.6875 146.4375 C-113.11938954 145.25011263 -111.55035384 144.06394633 -109.98046875 142.87890625 C-109.18431152 142.26934082 -108.3881543 141.65977539 -107.56787109 141.03173828 C-103.61479723 138.0473769 -99.55828714 135.21368709 -95.5 132.375 C-94.07012718 131.36875287 -92.64042167 130.36226792 -91.2109375 129.35546875 C-90.19257813 128.64003906 -89.17421875 127.92460937 -88.125 127.1875 C-81.22847363 131.71181695 -74.53284155 136.46579637 -67.875 141.33203125 C-64.05364824 144.11179928 -60.21388769 146.86558665 -56.328125 149.5546875 C-55.27093262 150.29114502 -55.27093262 150.29114502 -54.19238281 151.04248047 C-50.56613894 153.05087487 -48.19961783 152.86660297 -44.125 152.1875 C-40.7248301 150.11783136 -38.20687304 148.08224294 -37.125 144.1875 C-37.614372 138.17533287 -38.98443394 132.81332439 -40.84765625 127.09375 C-41.24506264 125.84555481 -41.24506264 125.84555481 -41.65049744 124.57214355 C-42.48961198 121.94177885 -43.33837664 119.31464862 -44.1875 116.6875 C-44.76171097 114.89343492 -45.335285 113.09916585 -45.90820312 111.3046875 C-47.30645026 106.9298991 -48.71335446 102.55798252 -50.125 98.1875 C-49.54105469 97.90914307 -48.95710938 97.63078613 -48.35546875 97.34399414 C-46.24448106 96.24945072 -44.37668734 95.05540618 -42.4375 93.68359375 C-41.74422607 93.1944751 -41.05095215 92.70535645 -40.33666992 92.20141602 C-39.60681885 91.68119873 -38.87696777 91.16098145 -38.125 90.625 C-37.37259033 90.0899585 -36.62018066 89.55491699 -35.8449707 89.00366211 C-33.60135604 87.40326315 -31.36232803 85.79667271 -29.125 84.1875 C-28.49770996 83.73793945 -27.87041992 83.28837891 -27.22412109 82.82519531 C-25.58051033 81.64231106 -23.94618355 80.44655737 -22.3125 79.25 C-20.94158203 78.24646484 -20.94158203 78.24646484 -19.54296875 77.22265625 C-15.52814843 73.84346176 -13.31507832 71.51804824 -12.5625 66.25 C-12.79481593 61.5321995 -14.76956999 59.3868635 -18.125 56.1875 C-20.93037303 55.25237566 -22.60665364 55.06567093 -25.50463867 55.07397461 C-26.82566841 55.07408791 -26.82566841 55.07408791 -28.17338562 55.07420349 C-29.12034805 55.07936478 -30.06731049 55.08452606 -31.04296875 55.08984375 C-32.01534988 55.0912587 -32.98773102 55.09267365 -33.98957825 55.09413147 C-37.09725004 55.09973183 -40.20484996 55.11228438 -43.3125 55.125 C-45.41861875 55.13001495 -47.52473863 55.13457787 -49.63085938 55.13867188 C-54.79560064 55.14970138 -59.96028813 55.16696625 -65.125 55.1875 C-65.30441132 54.50205109 -65.48382263 53.81660217 -65.66867065 53.11038208 C-67.65427402 45.5753798 -69.96746314 38.15864562 -72.40405273 30.76000977 C-72.84655511 29.40920442 -73.28365163 28.05661731 -73.71557617 26.70239258 C-74.34943765 24.71553102 -74.9990126 22.73443866 -75.65234375 20.75390625 C-76.22069946 19.00509155 -76.22069946 19.00509155 -76.80053711 17.22094727 C-78.46245968 13.41460847 -80.3955763 11.05221185 -84.125 9.1875 C-90.460781 8.5539219 -93.74524856 9.22842309 -98.125 14.1875 Z " fill="#000000" transform="translate(472.125,269.8125)"/>
</svg>
